<svg width="2677" height="738" viewBox="0 0 2677 738" fill="none" xmlns="http://www.w3.org/2000/svg">
<path d="M2278.41 673.656H2123.35V680.616C2123.35 698.989 2128.92 702.33 2148.4 702.33H2197.4V733.787H2148.4C2100.52 733.787 2081.87 716.527 2081.87 676.44V641.642C2081.87 597.658 2097.18 582.904 2150.35 582.904H2223.29C2266.44 582.904 2278.41 600.163 2278.41 624.104V673.656ZM2236.93 646.932V627.445C2236.93 617.423 2232.48 614.918 2219.95 614.918H2150.91C2130.03 614.918 2123.35 617.145 2123.35 638.859V646.932H2236.93ZM2539.4 582.904L2440.02 723.765C2433.89 732.117 2426.38 737.963 2411.62 737.963C2396.31 737.963 2389.07 732.395 2382.95 723.765L2283.57 582.904H2333.12L2412.18 698.432L2490.41 582.904H2539.4Z" fill="#E20613"/>
<path d="M279.619 478.763H153.442C55.5208 478.763 26.7778 448.558 26.7778 364.765V260.511C26.7778 176.718 55.5208 146.513 153.442 146.513H279.619C378.027 146.513 406.77 176.718 406.77 260.511V364.765C406.77 448.558 378.027 478.763 279.619 478.763ZM332.72 361.842V263.921C332.72 222.512 320.054 210.333 276.696 210.333H156.852C110.084 210.333 100.34 222.512 100.34 263.921V361.842C100.34 405.2 110.084 415.431 156.852 415.431H276.696C320.054 415.431 332.72 405.2 332.72 361.842ZM812.433 486.07C796.844 486.07 783.69 481.686 771.998 470.481L529.875 242.486V478.763H461.184V169.898C461.184 148.949 477.261 139.206 500.645 139.206C517.209 139.206 527.926 144.078 535.234 151.385L779.305 386.688V146.513H849.458V455.379C849.458 477.301 834.356 486.07 812.433 486.07ZM1262.14 478.763H1030.25C932.33 478.763 903.587 448.558 903.587 364.765V260.511C903.587 176.718 932.33 146.513 1030.25 146.513H1112.1V209.358H1030.25C987.38 209.358 977.149 222.025 977.149 260.511V282.921H1260.19V341.868H977.149V365.252C977.149 405.2 986.893 415.918 1030.25 415.918H1262.14V478.763ZM1589.57 478.763H1412.24C1333.81 478.763 1304.58 457.814 1304.58 404.226V377.431C1304.58 329.689 1322.11 314.1 1345.5 308.253C1324.55 302.407 1308.96 288.28 1308.96 249.306V224.46C1308.96 168.436 1338.19 146.513 1418.57 146.513H1583.24C1663.13 146.513 1692.36 168.436 1692.36 224.46V249.306C1692.36 288.28 1677.26 302.407 1656.31 308.253C1679.7 314.1 1696.75 329.689 1696.75 377.431V404.226C1696.75 457.814 1668 478.763 1589.57 478.763ZM1591.03 336.509H1410.78C1383.98 336.509 1374.24 344.304 1374.24 371.585V391.072C1374.24 413.969 1387.88 416.892 1419.06 416.892H1582.75C1612.95 416.892 1627.57 413.969 1627.57 391.072V371.585C1627.57 344.791 1617.83 336.509 1591.03 336.509ZM1575.93 208.384H1425.88C1390.81 208.384 1378.63 211.794 1378.63 233.717V254.178C1378.63 276.1 1386.91 284.382 1412.73 284.382H1589.08C1614.42 284.382 1623.18 276.1 1623.18 254.178V233.717C1623.18 211.794 1610.03 208.384 1575.93 208.384ZM2029.16 478.763H1851.83C1773.4 478.763 1744.17 457.814 1744.17 404.226V377.431C1744.17 329.689 1761.71 314.1 1785.09 308.253C1764.14 302.407 1748.55 288.28 1748.55 249.306V224.46C1748.55 168.436 1777.78 146.513 1858.17 146.513H2022.83C2102.73 146.513 2131.96 168.436 2131.96 224.46V249.306C2131.96 288.28 2116.85 302.407 2095.91 308.253C2119.29 314.1 2136.34 329.689 2136.34 377.431V404.226C2136.34 457.814 2107.6 478.763 2029.16 478.763ZM2030.63 336.509H1850.37C1823.58 336.509 1813.84 344.304 1813.84 371.585V391.072C1813.84 413.969 1827.48 416.892 1858.65 416.892H2022.34C2052.55 416.892 2067.16 413.969 2067.16 391.072V371.585C2067.16 344.791 2057.42 336.509 2030.63 336.509ZM2015.52 208.384H1865.48C1830.4 208.384 1818.22 211.794 1818.22 233.717V254.178C1818.22 276.1 1826.5 284.382 1852.32 284.382H2028.68C2054.01 284.382 2062.78 276.1 2062.78 254.178V233.717C2062.78 211.794 2049.63 208.384 2015.52 208.384ZM2468.76 478.763H2291.43C2212.99 478.763 2183.76 457.814 2183.76 404.226V377.431C2183.76 329.689 2201.3 314.1 2224.69 308.253C2203.74 302.407 2188.15 288.28 2188.15 249.306V224.46C2188.15 168.436 2217.38 146.513 2297.76 146.513H2462.42C2542.32 146.513 2571.55 168.436 2571.55 224.46V249.306C2571.55 288.28 2556.45 302.407 2535.5 308.253C2558.88 314.1 2575.94 329.689 2575.94 377.431V404.226C2575.94 457.814 2547.19 478.763 2468.76 478.763ZM2470.22 336.509H2289.97C2263.17 336.509 2253.43 344.304 2253.43 371.585V391.072C2253.43 413.969 2267.07 416.892 2298.25 416.892H2461.94C2492.14 416.892 2506.76 413.969 2506.76 391.072V371.585C2506.76 344.791 2497.01 336.509 2470.22 336.509ZM2455.12 208.384H2305.07C2269.99 208.384 2257.81 211.794 2257.81 233.717V254.178C2257.81 276.1 2266.1 284.382 2291.92 284.382H2468.27C2493.6 284.382 2502.37 276.1 2502.37 254.178V233.717C2502.37 211.794 2489.22 208.384 2455.12 208.384Z" fill="#E20613"/>
<path d="M2639.3 132.059C2618.52 132.059 2601.61 148.97 2601.61 169.756C2601.61 190.542 2618.52 207.454 2639.3 207.454C2660.09 207.454 2677 190.542 2677 169.756C2677 148.97 2660.09 132.059 2639.3 132.059ZM2639.3 137.858C2656.95 137.858 2671.2 152.108 2671.2 169.756C2671.2 187.404 2656.95 201.654 2639.3 201.654C2621.65 201.654 2607.41 187.404 2607.41 169.756C2607.41 152.108 2621.65 137.858 2639.3 137.858ZM2627.7 152.357V187.155H2633.5V175.556H2643.38L2648 187.155H2653.8L2648.91 174.831C2653.44 173.256 2656.7 169.031 2656.7 163.957C2656.7 157.548 2651.51 152.357 2645.1 152.357H2627.7ZM2633.5 158.157H2645.1C2648.56 158.157 2650.9 160.503 2650.9 163.957C2650.9 167.41 2648.56 169.756 2645.1 169.756H2633.5V158.157Z" fill="#E20613"/>
</svg>
