<svg width="892" height="198" viewBox="0 0 892 198" fill="none" xmlns="http://www.w3.org/2000/svg">
<path d="M78.221 134H42.8646C15.4258 134 7.37158 125.536 7.37158 102.056V72.8429C7.37158 49.3629 15.4258 40.8992 42.8646 40.8992H78.221C105.796 40.8992 113.851 49.3629 113.851 72.8429V102.056C113.851 125.536 105.796 134 78.221 134ZM93.1008 101.237V73.7985C93.1008 62.195 89.5515 58.7822 77.402 58.7822H43.8202C30.7151 58.7822 27.9848 62.195 27.9848 73.7985V101.237C27.9848 113.387 30.7151 116.254 43.8202 116.254H77.402C89.5515 116.254 93.1008 113.387 93.1008 101.237ZM227.523 136.048C223.155 136.048 219.469 134.819 216.192 131.679L148.346 67.792V134H129.098V47.4518C129.098 41.5818 133.603 38.8516 140.156 38.8516C144.797 38.8516 147.8 40.2167 149.848 42.2643L218.24 108.199V40.8992H237.898V127.447C237.898 133.59 233.666 136.048 227.523 136.048ZM353.538 134H288.558C261.12 134 253.065 125.536 253.065 102.056V72.8429C253.065 49.3629 261.12 40.8992 288.558 40.8992H311.492V58.5092H288.558C276.545 58.5092 273.679 62.0585 273.679 72.8429V79.1224H352.992V95.6403H273.679V102.193C273.679 113.387 276.409 116.39 288.558 116.39H353.538V134ZM445.287 134H395.597C373.619 134 365.428 128.13 365.428 113.114V105.606C365.428 92.2275 370.343 87.8591 376.895 86.221C371.025 84.5829 366.657 80.624 366.657 69.7031V62.7411C366.657 47.0422 374.847 40.8992 397.372 40.8992H443.513C465.901 40.8992 474.091 47.0422 474.091 62.7411V69.7031C474.091 80.624 469.859 84.5829 463.989 86.221C470.542 87.8591 475.32 92.2275 475.32 105.606V113.114C475.32 128.13 467.266 134 445.287 134ZM445.697 94.1387H395.188C387.68 94.1387 384.949 96.3229 384.949 103.967V109.428C384.949 115.844 388.772 116.663 397.508 116.663H443.376C451.84 116.663 455.935 115.844 455.935 109.428V103.967C455.935 96.4594 453.205 94.1387 445.697 94.1387ZM441.465 58.2362H399.419C389.591 58.2362 386.178 59.1918 386.178 65.3348V71.0682C386.178 77.2113 388.499 79.532 395.734 79.532H445.151C452.249 79.532 454.707 77.2113 454.707 71.0682V65.3348C454.707 59.1918 451.021 58.2362 441.465 58.2362ZM568.468 134H518.777C496.799 134 488.608 128.13 488.608 113.114V105.606C488.608 92.2275 493.523 87.8591 500.075 86.221C494.205 84.5829 489.837 80.624 489.837 69.7031V62.7411C489.837 47.0422 498.028 40.8992 520.552 40.8992H566.693C589.081 40.8992 597.271 47.0422 597.271 62.7411V69.7031C597.271 80.624 593.04 84.5829 587.17 86.221C593.722 87.8591 598.5 92.2275 598.5 105.606V113.114C598.5 128.13 590.446 134 568.468 134ZM568.877 94.1387H518.368C510.86 94.1387 508.129 96.3229 508.129 103.967V109.428C508.129 115.844 511.952 116.663 520.689 116.663H566.556C575.02 116.663 579.115 115.844 579.115 109.428V103.967C579.115 96.4594 576.385 94.1387 568.877 94.1387ZM564.645 58.2362H522.6C512.771 58.2362 509.358 59.1918 509.358 65.3348V71.0682C509.358 77.2113 511.679 79.532 518.914 79.532H568.331C575.43 79.532 577.887 77.2113 577.887 71.0682V65.3348C577.887 59.1918 574.201 58.2362 564.645 58.2362ZM691.648 134H641.958C619.979 134 611.789 128.13 611.789 113.114V105.606C611.789 92.2275 616.703 87.8591 623.256 86.221C617.386 84.5829 613.017 80.624 613.017 69.7031V62.7411C613.017 47.0422 621.208 40.8992 643.732 40.8992H689.873C712.261 40.8992 720.452 47.0422 720.452 62.7411V69.7031C720.452 80.624 716.22 84.5829 710.35 86.221C716.902 87.8591 721.68 92.2275 721.68 105.606V113.114C721.68 128.13 713.626 134 691.648 134ZM692.057 94.1387H641.548C634.04 94.1387 631.31 96.3229 631.31 103.967V109.428C631.31 115.844 635.132 116.663 643.869 116.663H689.737C698.2 116.663 702.296 115.844 702.296 109.428V103.967C702.296 96.4594 699.565 94.1387 692.057 94.1387ZM687.825 58.2362H645.78C635.951 58.2362 632.538 59.1918 632.538 65.3348V71.0682C632.538 77.2113 634.859 79.532 642.094 79.532H691.511C698.61 79.532 701.067 77.2113 701.067 71.0682V65.3348C701.067 59.1918 697.381 58.2362 687.825 58.2362Z" fill="white"/>
<path d="M788.285 116.954H744.835V118.904C744.835 124.053 746.395 124.989 751.856 124.989H765.585V133.804H751.856C738.439 133.804 733.212 128.967 733.212 117.734V107.984C733.212 95.6585 737.503 91.5242 752.402 91.5242H772.84C784.931 91.5242 788.285 96.3606 788.285 103.069V116.954ZM776.662 109.466V104.005C776.662 101.197 775.414 100.495 771.904 100.495H752.558C746.707 100.495 744.835 101.119 744.835 107.203V109.466H776.662ZM861.418 91.5242L833.57 130.995C831.854 133.336 829.748 134.974 825.613 134.974C821.323 134.974 819.295 133.414 817.579 130.995L789.73 91.5242H803.616L825.77 123.897L847.689 91.5242H861.418Z" fill="white"/>
</svg>
