<svg width="32" height="32" viewBox="0 0 32 32" fill="none" xmlns="http://www.w3.org/2000/svg">
<path d="M14.3463 18.2068H4.56488V18.6459C4.56488 19.8049 4.9161 20.0156 6.14537 20.0156H9.2361V22H6.14537C3.12488 22 1.94829 20.9112 1.94829 18.3824V16.1873C1.94829 13.4127 2.91415 12.482 6.26829 12.482H10.8693C13.5912 12.482 14.3463 13.5707 14.3463 15.081V18.2068ZM11.7298 16.521V15.2917C11.7298 14.6595 11.4488 14.5015 10.6585 14.5015H6.30342C4.98634 14.5015 4.56488 14.642 4.56488 16.0117V16.521H11.7298ZM30.8103 12.482L24.541 21.3678C24.1547 21.8946 23.6805 22.2634 22.7498 22.2634C21.784 22.2634 21.3274 21.9122 20.941 21.3678L14.6718 12.482H17.7976L22.7849 19.7698L27.7196 12.482H30.8103Z" fill="#E20613"/>
</svg>
