<?xml version="1.0" encoding="utf-8"?>
<!-- Generator: Adobe Illustrator 26.0.1, SVG Export Plug-In . SVG Version: 6.00 Build 0)  -->
<svg version="1.1" id="Layer_1" xmlns="http://www.w3.org/2000/svg" xmlns:xlink="http://www.w3.org/1999/xlink" x="0px" y="0px"
	 viewBox="0 0 160 111" style="enable-background:new 0 0 160 111;" xml:space="preserve">
<style type="text/css">
	.st0{fill-rule:evenodd;clip-rule:evenodd;fill:#0A0A0C;}
	.st1{fill-rule:evenodd;clip-rule:evenodd;fill:#E20613;}
</style>
<path class="st0" d="M24.3,67.4c0-4.4-1.9-6.4-4.8-6.4c-2.6,0-4.4,2.5-4.4,6.2c0,3.8,1.6,6.5,4.5,6.5C22.5,73.7,24.3,71.2,24.3,67.4
	L24.3,67.4z M14.2,53.7v4.1h0.1c1.5-3.4,5.5-4.9,8.6-4.9c8.3,0,12.4,6.8,12.4,14.4c0,10.9-6.8,14.8-12.9,14.8c-3,0-5.2-1.2-7.1-3.5
	v12.1h-11v-37H14.2z"/>
<rect x="37.4" y="41" class="st1" width="11" height="9.2"/>
<rect x="37.4" y="53.7" class="st0" width="11" height="27.6"/>
<path class="st0" d="M100.6,64.4c0-2.5-2.3-4.8-4.8-4.8c-3.3,0-5.1,1.8-5.1,4.8H100.6L100.6,64.4z M90.7,70c0,3.3,2.5,5.4,5.4,5.4
	c1.7,0,3.3-0.8,4.1-2.4h10.5c-1.9,6.9-8.9,9.1-15.3,9.1c-8.9,0-15.7-5.1-15.7-14.3c0-9.1,6.8-14.9,15.7-14.9
	c10.2,0,16.4,7.1,16.2,17.1H90.7z"/>
<rect x="113.4" y="43.3" class="st0" width="11" height="38"/>
<path class="st0" d="M136.7,72.7c0,1.1,0.4,1.9,1.2,2.5c0.7,0.5,1.6,0.8,2.7,0.8c1.7,0,3.5-0.5,3.5-2.5c0-4.4-16.9-0.9-16.9-11.6
	c0-7.1,7.3-9.1,13.1-9.1c6,0,13.1,1.4,13.7,8.7h-10c-0.1-0.9-0.5-1.5-1.1-2s-1.4-0.7-2.2-0.7c-1.9,0-3.1,0.6-3.1,2
	c0,3.8,17.5,1.3,17.5,11.6c0,5.8-4.8,9.7-14.9,9.7c-6.3,0-13.3-1.9-13.9-9.4L136.7,72.7L136.7,72.7L136.7,72.7z"/>
<polygon class="st0" points="83.7,81.9 71.6,81.9 63,70 61.4,67.8 63,65.6 71.6,53.7 83.7,53.7 73.5,67.8 "/>
<polygon class="st0" points="51.1,81.9 63.2,81.9 71.8,70 73.5,67.8 71.8,65.6 63.2,53.7 51.1,53.7 61.3,67.8 "/>
<path class="st0" d="M60.2,32.5c0,1.1,0.4,2,1.2,2.5c0.7,0.5,1.6,0.8,2.7,0.8c1.7,0,3.5-0.5,3.5-2.5c0-4.4-16.9-0.9-16.9-11.6
	c0-7.1,7.3-9.1,13.1-9.1c6,0,13.1,1.4,13.7,8.7h-10c-0.1-0.9-0.5-1.5-1.1-2c-0.6-0.5-1.4-0.7-2.2-0.7c-1.9,0-3.1,0.6-3.1,2
	c0,3.9,17.5,1.3,17.5,11.6c0,5.8-4.8,9.7-14.9,9.7c-6.3,0-13.3-2-13.9-9.4H60.2z"/>
<path class="st0" d="M99.2,28.8c-3.6,1.8-8.3,0.9-8.3,4.5c0,1.4,1.3,2.3,3.5,2.3C98.1,35.6,99.4,32.6,99.2,28.8L99.2,28.8z
	 M100.3,41.1l-0.5-3c-3.1,2.9-6.3,3.8-10.4,3.8c-5.2,0-9.9-2.6-9.9-8.3c0-12.5,19.7-6.9,19.7-12c0-2-2.4-2.3-3.6-2.3
	c-1.5,0-3.6,0.3-3.8,2.7H81.2c0-5.9,4.2-9.3,15.1-9.3c13.1,0,13.9,4.8,13.9,11.4V37c0,1.6,0.1,2.4,1.5,3.5v0.5H100.3z"/>
<rect x="113.1" y="3.1" class="st0" width="11" height="38"/>
<path class="st0" d="M141,13.2V3.1h-10.8v10.1h-4.1v6.3h3.9v21.5c0,0,10.3,0,11,0V19.5h4.1v-6.3C145,13.2,141,13.2,141,13.2z"/>
<path class="st0" d="M96.2,98.1c0-1.7,0.3-4.4,2.8-4.4c2.7,0,2.9,2.6,2.9,3.9c0,2.3-0.9,4.1-2.8,4.1C98,101.6,96.2,100.9,96.2,98.1
	L96.2,98.1z M94.5,107h1.8v-5.2h0c0.5,0.7,1.4,1.4,2.8,1.4c3.6,0,4.6-3.3,4.6-5.8c0-2.9-1.6-5.2-4.4-5.2c-1.9,0-2.7,1.2-3.1,1.8h0
	v-1.5h-1.7L94.5,107L94.5,107z M109.5,100.9L109.5,100.9l-2.8-8.5h-2l3.8,10.5h1.9l4-10.5h-1.9L109.5,100.9L109.5,100.9z
	 M119.7,93.8v-1.5H118v-2.9h-1.8v2.9h-1.4v1.5h1.4v6.9c0,1.3,0.4,2.2,2.1,2.2c0.2,0,0.7-0.1,1.3-0.1v-1.4h-0.6c-0.4,0-1.1,0-1.1-0.8
	v-6.8H119.7L119.7,93.8z M123.9,100.7h-2.1v2.1h2.1V100.7L123.9,100.7z M133.1,88.5h-1.8v14.4h1.8V88.5L133.1,88.5z M139.6,93.8
	v-1.5h-1.7v-2.9h-1.8v2.9h-1.4v1.5h1.4v6.9c0,1.3,0.4,2.2,2.1,2.2c0.2,0,0.7-0.1,1.3-0.1v-1.4H139c-0.4,0-1.1,0-1.1-0.8v-6.8H139.6
	L139.6,93.8z M150,88.5h-1.8v5.2l0,0.1c-0.4-0.6-1.2-1.8-3.1-1.8c-2.8,0-4.4,2.3-4.4,5.2c0,2.5,1,5.8,4.6,5.8c1,0,2.2-0.3,3-1.7h0
	v1.4h1.7L150,88.5L150,88.5z M142.6,97.6c0-1.3,0.1-3.9,2.9-3.9c2.5,0,2.8,2.7,2.8,4.4c0,2.8-1.7,3.5-2.9,3.5
	C143.5,101.6,142.6,99.9,142.6,97.6L142.6,97.6z M155,100.7h-2.1v2.1h2.1V100.7z"/>
</svg>
